<?xml version="1.0" standalone="no"?>
<!DOCTYPE svg PUBLIC "-//W3C//DTD SVG 20010904//EN"
 "http://www.w3.org/TR/2001/REC-SVG-20010904/DTD/svg10.dtd">
<svg version="1.0" xmlns="http://www.w3.org/2000/svg"
 width="110.000000pt" height="150.000000pt" viewBox="0 0 110.000000 150.000000"
 preserveAspectRatio="xMidYMid meet">

<g transform="translate(0.000000,150.000000) scale(0.100000,-0.100000)"
fill="#000000" stroke="none">
<path d="M587 1193 c-66 -7 -137 -56 -188 -130 -34 -49 -37 -73 -9 -73 14 0
20 7 20 23 0 23 72 99 117 125 16 8 85 12 239 12 240 0 243 -1 244 -66 0 -51
-34 -74 -113 -74 -36 0 -69 -4 -72 -10 -4 -6 -80 -10 -196 -10 -124 0 -188 -3
-184 -10 4 -6 102 -10 261 -10 243 0 256 1 287 22 80 52 74 159 -10 194 -31
13 -291 18 -396 7z"/>
<path d="M565 780 c-4 -6 23 -10 74 -10 44 0 83 -4 86 -10 3 -5 40 -10 80 -10
65 0 76 -3 85 -21 12 -21 5 -75 -13 -97 -29 -37 -67 -42 -341 -44 l-269 -3
-19 -34 c-12 -22 -19 -55 -20 -93 -1 -48 3 -63 22 -83 13 -14 31 -25 40 -25 9
0 22 -6 28 -12 10 -10 17 -10 32 0 11 6 26 12 34 12 22 0 80 63 105 116 13 27
27 56 31 64 6 12 36 16 146 20 108 4 148 9 180 24 51 24 84 73 84 125 0 34 -5
44 -33 65 -33 25 -39 26 -180 26 -86 0 -148 -4 -152 -10z m-97 -262 c4 -31
-38 -99 -71 -117 -13 -7 -45 -11 -73 -9 l-49 3 -3 59 c-5 86 9 98 112 94 80
-3 81 -3 84 -30z"/>
</g>
</svg>
